<mxfile host="app.diagrams.net" modified="2022-05-25T18:03:50.459Z" agent="5.0 (Windows NT 10.0; Win64; x64) AppleWebKit/537.36 (KHTML, like Gecko) Chrome/102.0.5005.61 Safari/537.36" etag="vKTiuwtv4DN173Cg9Fa1" version="17.4.4" type="github">
  <diagram id="h8Qpq5OId_jdaV0Uty62" name="Page-1">
    <mxGraphModel dx="1102" dy="614" grid="1" gridSize="10" guides="1" tooltips="1" connect="1" arrows="1" fold="1" page="1" pageScale="1" pageWidth="850" pageHeight="1100" math="0" shadow="0">
      <root>
        <mxCell id="0" />
        <mxCell id="1" parent="0" />
        <mxCell id="t2d8viJdFNTOlg7ECUOu-1" value="zefat art" style="rounded=0;whiteSpace=wrap;html=1;" vertex="1" parent="1">
          <mxGeometry x="370" y="50" width="120" height="60" as="geometry" />
        </mxCell>
        <mxCell id="t2d8viJdFNTOlg7ECUOu-2" value="" style="endArrow=none;html=1;rounded=0;" edge="1" parent="1">
          <mxGeometry width="50" height="50" relative="1" as="geometry">
            <mxPoint x="320" y="160" as="sourcePoint" />
            <mxPoint x="370" y="110" as="targetPoint" />
          </mxGeometry>
        </mxCell>
        <mxCell id="t2d8viJdFNTOlg7ECUOu-3" value="מקומות&lt;br&gt;מיסטיק&lt;br&gt;מצודה" style="rounded=0;whiteSpace=wrap;html=1;" vertex="1" parent="1">
          <mxGeometry x="250" y="160" width="120" height="60" as="geometry" />
        </mxCell>
        <mxCell id="t2d8viJdFNTOlg7ECUOu-4" value="אנשים&lt;br&gt;סדנאות שמעבירות אדם&lt;br&gt;אמנים&lt;br&gt;" style="rounded=0;whiteSpace=wrap;html=1;" vertex="1" parent="1">
          <mxGeometry x="390" y="160" width="120" height="60" as="geometry" />
        </mxCell>
        <mxCell id="t2d8viJdFNTOlg7ECUOu-5" value="" style="endArrow=none;html=1;rounded=0;exitX=0.342;exitY=-0.083;exitDx=0;exitDy=0;exitPerimeter=0;" edge="1" parent="1" source="t2d8viJdFNTOlg7ECUOu-4">
          <mxGeometry width="50" height="50" relative="1" as="geometry">
            <mxPoint x="350" y="160" as="sourcePoint" />
            <mxPoint x="400" y="110" as="targetPoint" />
          </mxGeometry>
        </mxCell>
        <mxCell id="t2d8viJdFNTOlg7ECUOu-6" value="גלריות&lt;br&gt;אירועים&lt;br&gt;" style="rounded=0;whiteSpace=wrap;html=1;" vertex="1" parent="1">
          <mxGeometry x="530" y="160" width="120" height="60" as="geometry" />
        </mxCell>
        <mxCell id="t2d8viJdFNTOlg7ECUOu-7" value="" style="endArrow=none;html=1;rounded=0;exitX=0.158;exitY=-0.017;exitDx=0;exitDy=0;exitPerimeter=0;" edge="1" parent="1" source="t2d8viJdFNTOlg7ECUOu-6">
          <mxGeometry width="50" height="50" relative="1" as="geometry">
            <mxPoint x="521.04" y="155.01999999999998" as="sourcePoint" />
            <mxPoint x="490" y="110" as="targetPoint" />
          </mxGeometry>
        </mxCell>
        <mxCell id="t2d8viJdFNTOlg7ECUOu-9" value="" style="endArrow=none;dashed=1;html=1;rounded=0;entryX=0;entryY=0.5;entryDx=0;entryDy=0;" edge="1" parent="1" target="t2d8viJdFNTOlg7ECUOu-1">
          <mxGeometry width="50" height="50" relative="1" as="geometry">
            <mxPoint x="80" y="270" as="sourcePoint" />
            <mxPoint x="170" y="180" as="targetPoint" />
            <Array as="points">
              <mxPoint x="80" y="260" />
            </Array>
          </mxGeometry>
        </mxCell>
        <mxCell id="t2d8viJdFNTOlg7ECUOu-11" value="מפה ויזואל של צפת שעליה ניזרקים אירועים" style="rounded=0;whiteSpace=wrap;html=1;" vertex="1" parent="1">
          <mxGeometry x="30" y="260" width="120" height="60" as="geometry" />
        </mxCell>
        <mxCell id="t2d8viJdFNTOlg7ECUOu-12" value="סיור וירטואלי" style="rounded=0;whiteSpace=wrap;html=1;" vertex="1" parent="1">
          <mxGeometry x="30" y="340" width="120" height="60" as="geometry" />
        </mxCell>
        <mxCell id="t2d8viJdFNTOlg7ECUOu-13" value="פריסה אנושית של qr וסיפורי מקום" style="rounded=0;whiteSpace=wrap;html=1;" vertex="1" parent="1">
          <mxGeometry x="30" y="410" width="120" height="60" as="geometry" />
        </mxCell>
        <mxCell id="t2d8viJdFNTOlg7ECUOu-14" value="" style="endArrow=none;html=1;rounded=0;exitX=0.75;exitY=1;exitDx=0;exitDy=0;" edge="1" parent="1" source="t2d8viJdFNTOlg7ECUOu-3" target="t2d8viJdFNTOlg7ECUOu-15">
          <mxGeometry width="50" height="50" relative="1" as="geometry">
            <mxPoint x="340" y="310" as="sourcePoint" />
            <mxPoint x="350" y="220" as="targetPoint" />
          </mxGeometry>
        </mxCell>
        <mxCell id="t2d8viJdFNTOlg7ECUOu-15" value="דאטה בייס של מיקום&amp;nbsp; - ואולי קישור לתוכן תמונה סיפור ושם" style="rounded=0;whiteSpace=wrap;html=1;" vertex="1" parent="1">
          <mxGeometry x="240" y="240" width="120" height="60" as="geometry" />
        </mxCell>
        <mxCell id="t2d8viJdFNTOlg7ECUOu-16" value="" style="endArrow=none;dashed=1;html=1;rounded=0;entryX=0.5;entryY=1;entryDx=0;entryDy=0;" edge="1" parent="1" target="t2d8viJdFNTOlg7ECUOu-4">
          <mxGeometry width="50" height="50" relative="1" as="geometry">
            <mxPoint x="450" y="260" as="sourcePoint" />
            <mxPoint x="450" y="250" as="targetPoint" />
          </mxGeometry>
        </mxCell>
        <mxCell id="t2d8viJdFNTOlg7ECUOu-17" value="עיסקי-קשר ישיר אל מול אנשים" style="rounded=0;whiteSpace=wrap;html=1;" vertex="1" parent="1">
          <mxGeometry x="390" y="240" width="120" height="60" as="geometry" />
        </mxCell>
        <mxCell id="t2d8viJdFNTOlg7ECUOu-18" value="" style="endArrow=none;html=1;rounded=0;exitX=0.325;exitY=1.05;exitDx=0;exitDy=0;exitPerimeter=0;" edge="1" parent="1" source="t2d8viJdFNTOlg7ECUOu-17" target="t2d8viJdFNTOlg7ECUOu-19">
          <mxGeometry width="50" height="50" relative="1" as="geometry">
            <mxPoint x="400" y="290" as="sourcePoint" />
            <mxPoint x="460" y="390" as="targetPoint" />
          </mxGeometry>
        </mxCell>
        <mxCell id="t2d8viJdFNTOlg7ECUOu-19" value="ממומשק אל חנות דיגיטלית" style="rounded=1;whiteSpace=wrap;html=1;" vertex="1" parent="1">
          <mxGeometry x="400" y="360" width="120" height="60" as="geometry" />
        </mxCell>
        <mxCell id="t2d8viJdFNTOlg7ECUOu-20" value="" style="endArrow=none;dashed=1;html=1;dashPattern=1 3;strokeWidth=2;rounded=0;" edge="1" parent="1" target="t2d8viJdFNTOlg7ECUOu-21">
          <mxGeometry width="50" height="50" relative="1" as="geometry">
            <mxPoint x="610" y="260" as="sourcePoint" />
            <mxPoint x="610" y="220" as="targetPoint" />
          </mxGeometry>
        </mxCell>
        <mxCell id="t2d8viJdFNTOlg7ECUOu-22" style="edgeStyle=orthogonalEdgeStyle;rounded=0;orthogonalLoop=1;jettySize=auto;html=1;entryX=0.633;entryY=1.05;entryDx=0;entryDy=0;entryPerimeter=0;" edge="1" parent="1" source="t2d8viJdFNTOlg7ECUOu-21" target="t2d8viJdFNTOlg7ECUOu-6">
          <mxGeometry relative="1" as="geometry" />
        </mxCell>
        <mxCell id="t2d8viJdFNTOlg7ECUOu-21" value="פרוייקטים ככלל&lt;br&gt;לפרסום&lt;br&gt;טראפיק&lt;br&gt;" style="rounded=0;whiteSpace=wrap;html=1;" vertex="1" parent="1">
          <mxGeometry x="550" y="260" width="120" height="60" as="geometry" />
        </mxCell>
        <mxCell id="t2d8viJdFNTOlg7ECUOu-23" value="" style="endArrow=none;dashed=1;html=1;rounded=0;" edge="1" parent="1">
          <mxGeometry width="50" height="50" relative="1" as="geometry">
            <mxPoint x="400" y="470" as="sourcePoint" />
            <mxPoint x="450" y="420" as="targetPoint" />
          </mxGeometry>
        </mxCell>
        <mxCell id="t2d8viJdFNTOlg7ECUOu-24" value="לכל אמן דף מציג+פוסטר&lt;br&gt;יצירות אומנות&lt;br&gt;ורשימת פריטים" style="rounded=0;whiteSpace=wrap;html=1;" vertex="1" parent="1">
          <mxGeometry x="340" y="470" width="120" height="60" as="geometry" />
        </mxCell>
        <mxCell id="t2d8viJdFNTOlg7ECUOu-29" value="צריך לחשוב&lt;br&gt;אם ניתן להצטרף&amp;nbsp;&lt;br&gt;בצורה אוטומטית&lt;br&gt;או לפנות אלינו" style="ellipse;whiteSpace=wrap;html=1;" vertex="1" parent="1">
          <mxGeometry x="530" y="360" width="100" height="80" as="geometry" />
        </mxCell>
        <mxCell id="t2d8viJdFNTOlg7ECUOu-30" value="" style="endArrow=none;dashed=1;html=1;dashPattern=1 3;strokeWidth=2;rounded=0;" edge="1" parent="1">
          <mxGeometry width="50" height="50" relative="1" as="geometry">
            <mxPoint x="400" y="260" as="sourcePoint" />
            <mxPoint x="450" y="210" as="targetPoint" />
          </mxGeometry>
        </mxCell>
        <mxCell id="t2d8viJdFNTOlg7ECUOu-31" value="" style="endArrow=none;dashed=1;html=1;dashPattern=1 3;strokeWidth=2;rounded=0;entryX=0;entryY=0.5;entryDx=0;entryDy=0;" edge="1" parent="1" target="t2d8viJdFNTOlg7ECUOu-29">
          <mxGeometry width="50" height="50" relative="1" as="geometry">
            <mxPoint x="520" y="400" as="sourcePoint" />
            <mxPoint x="570" y="350" as="targetPoint" />
          </mxGeometry>
        </mxCell>
        <mxCell id="t2d8viJdFNTOlg7ECUOu-33" value="" style="endArrow=none;dashed=1;html=1;rounded=0;" edge="1" parent="1" target="t2d8viJdFNTOlg7ECUOu-4">
          <mxGeometry width="50" height="50" relative="1" as="geometry">
            <mxPoint x="390" y="230" as="sourcePoint" />
            <mxPoint x="450" y="190" as="targetPoint" />
          </mxGeometry>
        </mxCell>
        <mxCell id="t2d8viJdFNTOlg7ECUOu-34" value="" style="endArrow=none;html=1;rounded=0;exitX=0.908;exitY=1;exitDx=0;exitDy=0;exitPerimeter=0;" edge="1" parent="1" source="t2d8viJdFNTOlg7ECUOu-19" target="t2d8viJdFNTOlg7ECUOu-35">
          <mxGeometry width="50" height="50" relative="1" as="geometry">
            <mxPoint x="520" y="470" as="sourcePoint" />
            <mxPoint x="510" y="415" as="targetPoint" />
          </mxGeometry>
        </mxCell>
        <mxCell id="t2d8viJdFNTOlg7ECUOu-35" value="כלים ומערכת משתמשים לעבודה על crm" style="rounded=0;whiteSpace=wrap;html=1;" vertex="1" parent="1">
          <mxGeometry x="480" y="450" width="120" height="60" as="geometry" />
        </mxCell>
        <mxCell id="t2d8viJdFNTOlg7ECUOu-36" value="" style="endArrow=none;html=1;rounded=0;" edge="1" parent="1" target="t2d8viJdFNTOlg7ECUOu-38">
          <mxGeometry width="50" height="50" relative="1" as="geometry">
            <mxPoint x="340" y="430" as="sourcePoint" />
            <mxPoint x="400" y="400" as="targetPoint" />
          </mxGeometry>
        </mxCell>
        <mxCell id="t2d8viJdFNTOlg7ECUOu-38" value="רשימת פריטים עם מחיר ושיוך לאמן פירוט אחוזים וכו" style="rounded=0;whiteSpace=wrap;html=1;" vertex="1" parent="1">
          <mxGeometry x="250" y="380" width="120" height="60" as="geometry" />
        </mxCell>
        <mxCell id="t2d8viJdFNTOlg7ECUOu-39" value="" style="endArrow=none;html=1;rounded=0;entryX=0.317;entryY=1.033;entryDx=0;entryDy=0;entryPerimeter=0;" edge="1" parent="1" source="t2d8viJdFNTOlg7ECUOu-38" target="t2d8viJdFNTOlg7ECUOu-19">
          <mxGeometry width="50" height="50" relative="1" as="geometry">
            <mxPoint x="400" y="550" as="sourcePoint" />
            <mxPoint x="450" y="500" as="targetPoint" />
          </mxGeometry>
        </mxCell>
      </root>
    </mxGraphModel>
  </diagram>
</mxfile>
